<svg width="40" height="41" viewBox="0 0 40 41" fill="none" xmlns="http://www.w3.org/2000/svg">
<g id="Figma" clip-path="url(#clip0_211_298)">
<path id="Vector" d="M13.3332 40.5003C17.0132 40.5003 19.9998 37.5137 19.9998 33.8337V27.167H13.3332C9.65317 27.167 6.6665 30.1537 6.6665 33.8337C6.6665 37.5137 9.65317 40.5003 13.3332 40.5003Z" fill="#D4D4D4"/>
<path id="Vector_2" d="M6.6665 20.4997C6.6665 16.8197 9.65317 13.833 13.3332 13.833H19.9998V27.1663H13.3332C9.65317 27.1663 6.6665 24.1797 6.6665 20.4997Z" fill="#D4D4D4"/>
<path id="Vector_3" d="M6.6665 7.16667C6.6665 3.48667 9.65317 0.5 13.3332 0.5H19.9998V13.8333H13.3332C9.65317 13.8333 6.6665 10.8467 6.6665 7.16667Z" fill="#D4D4D4"/>
<path id="Vector_4" d="M19.9998 0.5H26.6664C30.3464 0.5 33.3331 3.48667 33.3331 7.16667C33.3331 10.8467 30.3464 13.8333 26.6664 13.8333H19.9998V0.5Z" fill="#D4D4D4"/>
<path id="Vector_5" d="M33.3331 20.4997C33.3331 24.1797 30.3464 27.1663 26.6664 27.1663C22.9864 27.1663 19.9998 24.1797 19.9998 20.4997C19.9998 16.8197 22.9864 13.833 26.6664 13.833C30.3464 13.833 33.3331 16.8197 33.3331 20.4997Z" fill="#D4D4D4"/>
</g>
<defs>
<clipPath id="clip0_211_298">
<rect width="40" height="40" fill="white" transform="translate(0 0.5)"/>
</clipPath>
</defs>
</svg>
