<svg width="40" height="41" viewBox="0 0 40 41" fill="none" xmlns="http://www.w3.org/2000/svg">
<g id="linkedin">
<path id="Vector" d="M36.1916 1.50535C30.3472 1.48895 8.7908 1.51655 3.8084 1.50535C2.258 1.50535 1 2.72495 1 4.22695V36.7794C1 38.2817 2.258 39.5001 3.8084 39.5001H36.1916C37.7428 39.5001 39 38.2817 39 36.7789V4.22695C39 2.72495 37.7428 1.50535 36.1916 1.50535Z" fill="#D4D4D4"/>
<path id="Vector_2" d="M21.3812 33.302C21.3812 33.302 21.3812 23.7508 21.3812 23.7504C21.3256 21.9952 22.3748 20.3572 24.486 20.2836C26.5432 20.2836 27.3664 21.852 27.3664 24.1516V33.3016H33.052V23.494C33.052 18.24 30.2472 15.7952 26.506 15.7952C23.4388 15.7952 22.0916 17.5092 21.3432 18.6768L21.3812 16.1968H15.6956C15.7696 17.8016 15.6952 33.302 15.6952 33.302H21.3812ZM12.548 25.8844V16.1964H6.86158V33.3016H12.5484C12.5472 31.5056 12.5504 27.6552 12.548 25.8844ZM9.70598 13.8616C11.6884 13.8616 12.9228 12.548 12.9228 10.9068C12.9064 6.94797 6.52118 6.99197 6.52638 10.9064C6.52198 12.5604 7.79038 13.882 9.70598 13.8616Z" fill="#171717"/>
</g>
</svg>
