<svg width="61" height="39" viewBox="0 0 61 39" fill="none" xmlns="http://www.w3.org/2000/svg">
<path d="M0 19.5C0 9.00659 8.50659 0.5 19 0.5H42C52.4934 0.5 61 9.00659 61 19.5C61 29.9934 52.4934 38.5 42 38.5H19C8.50659 38.5 0 29.9934 0 19.5Z" fill="#262626"/>
<path d="M16.0092 14.5475L17.0359 16.6009C17.1759 16.8867 17.5492 17.1609 17.8642 17.2134L19.7251 17.5225C20.9151 17.7209 21.1951 18.5842 20.3376 19.4359L18.8909 20.8825C18.6459 21.1275 18.5117 21.6 18.5876 21.9384L19.0017 23.7292C19.3284 25.1467 18.5759 25.695 17.3217 24.9542L15.5776 23.9217C15.2626 23.735 14.7434 23.735 14.4226 23.9217L12.6784 24.9542C11.4301 25.695 10.6717 25.1409 10.9984 23.7292L11.4126 21.9384C11.4884 21.6 11.3542 21.1275 11.1092 20.8825L9.66257 19.4359C8.8109 18.5842 9.08507 17.7209 10.2751 17.5225L12.1359 17.2134C12.4451 17.1609 12.8184 16.8867 12.9584 16.6009L13.9851 14.5475C14.5451 13.4334 15.4551 13.4334 16.0092 14.5475Z" fill="#F59E0B"/>
<path d="M24.5234 23.3438V21.6641L29.4688 13.8594H30.8594V16.25H30.0078L26.6797 21.5156V21.6094H33.5781V23.3438H24.5234ZM30.0703 25.5V22.8359L30.1016 22.0781V13.8594H32.0859V25.5H30.0703ZM35.9922 25.6328C35.638 25.6328 35.3385 25.513 35.0938 25.2734C34.8542 25.0286 34.7344 24.7318 34.7344 24.3828C34.7344 24.0339 34.8542 23.7396 35.0938 23.5C35.3385 23.2552 35.638 23.1328 35.9922 23.1328C36.3464 23.1328 36.6432 23.2552 36.8828 23.5C37.1276 23.7396 37.25 24.0339 37.25 24.3828C37.25 24.7318 37.1276 25.0286 36.8828 25.2734C36.6432 25.513 36.3464 25.6328 35.9922 25.6328ZM42.6875 25.6562C41.8438 25.6562 41.0964 25.5156 40.4453 25.2344C39.7943 24.9479 39.2839 24.5573 38.9141 24.0625C38.5495 23.5677 38.3672 23.0078 38.3672 22.3828C38.3672 21.8984 38.474 21.4505 38.6875 21.0391C38.901 20.6276 39.1901 20.2839 39.5547 20.0078C39.9245 19.7318 40.3385 19.5547 40.7969 19.4766V19.4062C40.1979 19.2708 39.7135 18.9635 39.3438 18.4844C38.974 18.0052 38.7891 17.4505 38.7891 16.8203C38.7891 16.2214 38.9557 15.6875 39.2891 15.2188C39.6276 14.75 40.0911 14.3802 40.6797 14.1094C41.2682 13.8385 41.9375 13.7031 42.6875 13.7031C43.4323 13.7031 44.099 13.8385 44.6875 14.1094C45.276 14.3802 45.7396 14.75 46.0781 15.2188C46.4167 15.6875 46.5859 16.2214 46.5859 16.8203C46.5859 17.4505 46.3984 18.0052 46.0234 18.4844C45.6484 18.9635 45.1693 19.2708 44.5859 19.4062V19.4766C45.0339 19.5547 45.4427 19.7318 45.8125 20.0078C46.1823 20.2839 46.474 20.6276 46.6875 21.0391C46.9062 21.4505 47.0156 21.8984 47.0156 22.3828C47.0156 23.0078 46.8307 23.5677 46.4609 24.0625C46.0911 24.5573 45.5807 24.9479 44.9297 25.2344C44.2786 25.5156 43.5312 25.6562 42.6875 25.6562ZM42.6875 24.0391C43.125 24.0391 43.5052 23.9635 43.8281 23.8125C44.151 23.6615 44.401 23.4505 44.5781 23.1797C44.7552 22.9036 44.8438 22.5885 44.8438 22.2344C44.8438 21.8646 44.75 21.5365 44.5625 21.25C44.375 20.9635 44.1198 20.7396 43.7969 20.5781C43.474 20.4115 43.1042 20.3281 42.6875 20.3281C42.2708 20.3281 41.8984 20.4115 41.5703 20.5781C41.2474 20.7396 40.9922 20.9635 40.8047 21.25C40.6224 21.5312 40.5312 21.8594 40.5312 22.2344C40.5312 22.5885 40.6198 22.9036 40.7969 23.1797C40.974 23.4505 41.224 23.6615 41.5469 23.8125C41.8698 23.9635 42.25 24.0391 42.6875 24.0391ZM42.6875 18.7344C43.0417 18.7344 43.3568 18.6641 43.6328 18.5234C43.9089 18.3776 44.1276 18.1771 44.2891 17.9219C44.4505 17.6615 44.5312 17.3646 44.5312 17.0312C44.5312 16.6927 44.4531 16.3984 44.2969 16.1484C44.1406 15.8984 43.9245 15.7057 43.6484 15.5703C43.3724 15.4297 43.0521 15.3594 42.6875 15.3594C42.3229 15.3594 42 15.4297 41.7188 15.5703C41.4427 15.7057 41.2266 15.8984 41.0703 16.1484C40.9193 16.3984 40.8438 16.6927 40.8438 17.0312C40.8438 17.3646 40.9219 17.6589 41.0781 17.9141C41.2344 18.1693 41.4505 18.3698 41.7266 18.5156C42.0078 18.6615 42.3281 18.7344 42.6875 18.7344Z" fill="#FAFAFA"/>
</svg>
