<svg width="40" height="41" viewBox="0 0 40 41" fill="none" xmlns="http://www.w3.org/2000/svg">
<g id="telegram">
<path id="Vector" d="M19.9905 3.83301C16.6942 3.83301 13.4718 4.81049 10.731 6.64185C7.9902 8.4732 5.854 11.0762 4.59253 14.1216C3.33107 17.1671 3.00102 20.5182 3.64411 23.7512C4.28719 26.9842 5.87454 29.9539 8.20541 32.2848C10.5363 34.6157 13.506 36.203 16.739 36.8461C19.972 37.4892 23.3231 37.1591 26.3686 35.8977C29.414 34.6362 32.017 32.5 33.8484 29.7592C35.6797 27.0184 36.6572 23.796 36.6572 20.4997C36.6574 18.3109 36.2264 16.1436 35.3889 14.1214C34.5514 12.0992 33.3237 10.2618 31.776 8.71416C30.2284 7.16648 28.391 5.93883 26.3688 5.10131C24.3466 4.2638 22.1793 3.83283 19.9905 3.83301ZM25.2897 29.0871C25.2273 29.2427 25.1324 29.3831 25.0113 29.499C24.8902 29.6148 24.7458 29.7035 24.5876 29.759C24.4295 29.8144 24.2613 29.8355 24.0944 29.8206C23.9274 29.8058 23.7656 29.7554 23.6197 29.673L19.0953 26.1573L16.1914 28.8363C16.124 28.8861 16.0452 28.9182 15.9622 28.9295C15.8792 28.9408 15.7947 28.9311 15.7164 28.9012L16.2731 23.9205L16.2909 23.9346L16.3023 23.8363C16.3023 23.8363 24.4439 16.4238 24.7756 16.1079C25.1114 15.7929 25.0006 15.7246 25.0006 15.7246C25.0197 15.3404 24.3981 15.7246 24.3981 15.7246L13.6105 22.6647L9.11804 21.1347C9.11804 21.1347 8.42804 20.8872 8.36304 20.343C8.29471 19.803 9.14053 19.5097 9.14053 19.5097L27.0022 12.4138C27.0022 12.4138 28.4705 11.7596 28.4705 12.843L25.2897 29.0871Z" fill="#D4D4D4"/>
</g>
</svg>
