<svg width="40" height="41" viewBox="0 0 40 41" fill="none" xmlns="http://www.w3.org/2000/svg">
<g id="twitter">
<path id="Vector" d="M38.5684 8.94863C37.2016 9.55583 35.7332 9.96423 34.192 10.1486C35.766 9.20583 36.9728 7.71343 37.5412 5.93383C36.07 6.80663 34.4392 7.44063 32.702 7.78343C31.3124 6.30223 29.3328 5.37663 27.1416 5.37663C22.2984 5.31183 18.5748 10.0434 19.7208 14.7306C13.3892 14.4134 7.77601 11.3798 4.01681 6.76903C1.96521 10.1146 3.13001 14.899 6.37521 16.9414C5.12681 16.9014 3.95121 16.5586 2.92441 15.9886C2.87681 19.7106 5.51721 22.853 9.03601 23.5542C7.95481 23.8558 6.70921 23.903 5.59521 23.6854C6.56521 26.7118 9.37881 28.9158 12.7124 28.977C9.69841 31.3854 5.47881 32.641 1.43201 32.1322C17.7048 42.147 35.694 29.0262 34.7652 12.8918C36.2544 11.8166 37.5472 10.4754 38.5684 8.94863Z" fill="#D4D4D4"/>
</g>
</svg>
